<svg viewBox="0 0 342 512" xmlns="http://www.w3.org/2000/svg">
<path fill-rule="evenodd" clip-rule="evenodd" d="M206.505 499.892C206.505 499.892 206.592 499.621 206.743 499.154C206.818 498.918 206.91 498.631 207.018 498.303C207.068 498.14 207.127 497.965 207.184 497.782C207.233 497.611 207.249 497.481 207.288 497.318C207.359 497.003 207.439 496.659 207.522 496.297C207.634 495.951 207.628 495.475 207.693 495.038C207.736 494.59 207.823 494.118 207.799 493.642C207.801 493.16 207.803 492.669 207.807 492.181C207.752 491.691 207.701 491.202 207.648 490.718C207.626 490.226 207.49 489.766 207.396 489.308C207.284 488.859 207.237 488.393 207.081 487.994C206.944 487.585 206.814 487.196 206.694 486.836C206.479 486.104 206.137 485.563 205.974 485.148C205.787 484.739 205.683 484.505 205.683 484.505L205.579 484.277C205.128 483.288 205.565 482.122 206.554 481.671C207.431 481.272 208.448 481.569 208.983 482.33C208.983 482.33 209.16 482.584 209.469 483.028C209.756 483.483 210.276 484.081 210.701 484.912C210.927 485.325 211.169 485.772 211.428 486.244C211.706 486.712 211.875 487.255 212.115 487.799C212.335 488.346 212.597 488.909 212.748 489.512C212.921 490.116 213.1 490.728 213.277 491.343C213.391 491.972 213.503 492.602 213.614 493.225C213.751 493.847 213.763 494.468 213.812 495.074C213.836 495.693 213.93 496.244 213.883 496.852C213.852 497.453 213.828 498.018 213.802 498.539C213.777 499.101 213.726 499.497 213.675 499.821C213.629 500.163 213.588 500.458 213.555 500.702C213.488 501.194 213.45 501.473 213.45 501.473C213.181 503.428 211.379 504.799 209.424 504.531C207.467 504.262 206.098 502.46 206.367 500.504C206.393 500.299 206.446 500.083 206.505 499.892Z"/>
<path fill-rule="evenodd" clip-rule="evenodd" d="M232.909 500.101C232.909 500.101 232.98 499.82 233.102 499.334C233.163 499.088 233.237 498.791 233.322 498.449C233.416 498.097 233.505 497.723 233.548 497.397C233.613 497.043 233.682 496.661 233.757 496.256C233.847 495.859 233.855 495.369 233.912 494.895C234.046 493.934 234.012 492.903 234.044 491.857C233.967 490.821 233.953 489.766 233.774 488.797C233.694 488.313 233.664 487.827 233.548 487.389C233.45 486.946 233.357 486.527 233.269 486.14C233.117 485.355 232.858 484.738 232.738 484.286C232.602 483.837 232.525 483.583 232.525 483.583L232.468 483.399C232.13 482.305 232.744 481.143 233.841 480.805C234.823 480.502 235.861 480.97 236.306 481.859L236.685 482.618C236.908 483.106 237.313 483.78 237.643 484.649C237.818 485.084 238.005 485.554 238.206 486.048C238.42 486.545 238.55 487.092 238.737 487.652C239.128 488.765 239.362 489.995 239.648 491.228C239.823 492.476 240.055 493.729 240.096 494.923C240.122 495.527 240.2 496.079 240.177 496.667C240.165 497.243 240.157 497.788 240.147 498.294C240.145 498.827 240.112 499.234 240.078 499.57C240.049 499.92 240.023 500.225 240.002 500.475C239.962 500.978 239.937 501.265 239.937 501.265C239.772 503.232 238.043 504.693 236.078 504.528C234.113 504.364 232.651 502.634 232.815 500.669C232.832 500.482 232.866 500.28 232.909 500.101Z"/>
<path fill-rule="evenodd" clip-rule="evenodd" d="M151.938 198.557C146.948 199.078 114.767 176.769 151.938 177.054C189.113 176.769 156.93 199.078 151.938 198.557Z"/>
<path fill-rule="evenodd" clip-rule="evenodd" d="M41.8113 85.6992C50.6539 70.3566 63.3249 57.5734 78.5915 48.601C31.624 2.60161 35.3588 41.4068 41.8113 85.6992Z"/>
<path fill-rule="evenodd" clip-rule="evenodd" d="M61.1508 68.0985C55.3208 73.9763 50.2495 80.5846 46.0733 87.7727C45.4081 89.1399 44.0961 90.1612 42.4789 90.3932C39.8874 90.7614 37.487 88.9588 37.1188 86.3668C33.7909 63.5309 31.1973 42.0337 35.8271 31.399C41.6205 18.091 54.7756 18.6484 81.9117 45.2239C82.1985 45.5128 82.4548 45.8403 82.6705 46.2086C83.9927 48.4629 83.236 51.3601 80.9841 52.6826C73.716 56.9531 67.056 62.1433 61.1508 68.0985ZM44.7755 72.6233C47.7393 68.662 50.9696 64.9184 54.4359 61.421C59.4481 56.3651 64.973 51.8077 70.9352 47.822C54.1857 32.1437 46.7873 29.9463 44.509 35.1813C41.592 41.8831 42.6315 56.1454 44.7755 72.6233Z"/>
<path fill-rule="evenodd" clip-rule="evenodd" d="M262.067 85.6992C253.225 70.3566 240.552 57.5734 225.287 48.601C272.257 2.60161 268.52 41.4068 262.067 85.6992Z"/>
<path fill-rule="evenodd" clip-rule="evenodd" d="M249.443 61.4221C252.909 64.9195 256.14 68.6631 259.104 72.6223C261.248 56.1465 262.285 41.8821 259.37 35.1823C257.092 29.9454 249.691 32.1427 232.942 47.821C238.904 51.8067 244.431 56.3662 249.443 61.4221ZM257.804 87.7717C253.632 80.5836 248.556 73.9774 242.728 68.0995C236.823 62.1423 230.161 56.9521 222.893 52.6816C220.641 51.3612 219.886 48.4619 221.207 46.2076C221.424 45.8394 221.681 45.5118 221.969 45.227C249.103 18.6474 262.259 18.09 268.05 31.398C272.682 42.0347 270.086 63.5299 266.76 86.3658C266.39 88.9578 263.99 90.7605 261.4 90.3922C259.781 90.1603 258.469 89.1389 257.804 87.7717Z"/>
<path fill-rule="evenodd" clip-rule="evenodd" d="M296.568 245.66C296.568 245.66 296.802 245.432 297.213 245.036C297.416 244.838 297.666 244.598 297.953 244.322C298.299 244.014 298.39 243.819 298.628 243.544C298.834 243.266 299.106 243.034 299.348 242.651C299.584 242.252 299.837 241.833 300.097 241.396C300.38 240.961 300.524 240.432 300.762 239.929L301.092 239.146L301.322 238.309C301.46 237.74 301.68 237.186 301.759 236.602C301.853 236.015 301.946 235.437 302.036 234.879C302.156 234.316 302.133 233.752 302.184 233.225C302.215 232.69 302.247 232.185 302.278 231.718C302.237 229.825 302.211 228.562 302.211 228.562L302.209 228.47C302.198 227.88 302.664 227.394 303.252 227.382C303.752 227.372 304.178 227.709 304.302 228.171C304.302 228.171 304.65 229.469 305.17 231.414C305.258 231.917 305.357 232.462 305.463 233.036C305.551 233.62 305.718 234.222 305.744 234.875C305.797 235.528 305.852 236.202 305.909 236.887C305.976 237.577 305.897 238.293 305.892 239.011L305.854 240.094L305.699 241.17C305.567 241.884 305.52 242.611 305.307 243.286C305.101 243.968 304.902 244.629 304.715 245.255C304.501 245.888 304.153 246.517 303.891 247.085C303.616 247.632 303.317 248.25 303.124 248.521C302.91 248.859 302.725 249.152 302.575 249.392C302.272 249.874 302.097 250.149 302.097 250.149C301.041 251.825 298.826 252.332 297.15 251.276C295.473 250.222 294.971 248.006 296.025 246.33C296.177 246.086 296.37 245.852 296.568 245.66Z"/>
<path fill-rule="evenodd" clip-rule="evenodd" d="M279.885 249.023C279.885 249.023 279.738 248.755 279.48 248.285C279.352 248.049 279.193 247.766 279.014 247.438C278.845 247.172 278.597 246.565 278.369 246.042C278.15 245.497 277.851 244.885 277.686 244.283C277.531 243.688 277.369 243.06 277.202 242.411C277.031 241.766 276.996 241.086 276.893 240.409C276.783 239.733 276.744 239.048 276.75 238.368C276.756 237.695 276.697 237.015 276.762 236.364C276.815 235.715 276.872 235.078 276.923 234.46C276.954 233.843 277.1 233.269 277.185 232.718C277.281 232.173 277.373 231.658 277.458 231.182C277.928 229.333 278.243 228.1 278.243 228.1C278.445 227.316 279.242 226.844 280.023 227.044C280.703 227.217 281.148 227.837 281.124 228.513L281.12 228.633C281.12 228.633 281.079 229.811 281.018 231.573C281.034 232.008 281.054 232.478 281.077 232.974C281.109 233.469 281.085 233.994 281.179 234.521C281.246 235.044 281.317 235.585 281.388 236.136C281.449 236.685 281.626 237.21 281.736 237.743C281.846 238.281 281.988 238.799 282.19 239.282C282.385 239.764 282.505 240.268 282.733 240.694C282.952 241.117 283.16 241.528 283.361 241.918C283.559 242.297 283.795 242.529 283.967 242.805C284.175 243.084 284.234 243.263 284.537 243.581C284.781 243.861 284.995 244.106 285.174 244.309C285.522 244.712 285.725 244.944 285.725 244.944C287.023 246.435 286.87 248.698 285.377 249.998C283.888 251.298 281.622 251.143 280.326 249.652C280.157 249.461 280.005 249.237 279.885 249.023Z"/>
<path fill-rule="evenodd" clip-rule="evenodd" d="M35.6005 358.75C35.6005 358.75 35.3442 358.549 34.8967 358.199C34.6729 358.026 34.4024 357.812 34.0891 357.568C33.8124 357.383 33.3283 356.897 32.8848 356.471C32.4455 356.022 31.9044 355.542 31.4894 355.013C31.0988 354.482 30.6879 353.924 30.2628 353.348C29.8336 352.777 29.5447 352.107 29.1765 351.475L28.6619 350.504L28.2591 349.491C28.013 348.811 27.6916 348.152 27.5207 347.479C27.3396 346.807 27.1627 346.148 26.9918 345.509C26.7945 344.879 26.7457 344.25 26.6297 343.668C26.5321 343.086 26.4426 342.533 26.3571 342.024C26.1842 340 26.0703 338.649 26.0703 338.649C25.995 337.764 26.6541 336.98 27.5431 336.907C28.3262 336.838 29.028 337.345 29.2314 338.079L29.2701 338.213C29.2701 338.213 29.6037 339.412 30.1061 341.208C30.2648 341.64 30.4377 342.103 30.6208 342.598C30.8161 343.08 30.9564 343.621 31.227 344.114C31.4711 344.614 31.7213 345.133 31.9756 345.656C32.2176 346.187 32.5797 346.645 32.8706 347.139L33.3242 347.863L33.8531 348.506C34.2172 348.913 34.5041 349.375 34.8906 349.705C35.2587 350.044 35.6147 350.37 35.9524 350.681C36.286 350.974 36.6054 351.114 36.8759 351.324C37.179 351.517 37.3153 351.68 37.7384 351.873C38.0903 352.056 38.3955 352.211 38.6497 352.343C39.1542 352.604 39.4431 352.752 39.4431 352.752C41.1986 353.658 41.8882 355.816 40.985 357.57C40.0798 359.328 37.9235 360.018 36.166 359.112C35.9707 359.013 35.7693 358.88 35.6005 358.75Z"/>
<path fill-rule="evenodd" clip-rule="evenodd" d="M49.5145 348.671C49.5145 348.671 49.6346 348.388 49.8441 347.896C49.9478 347.648 50.0739 347.351 50.2204 347.007C50.4075 346.61 50.4075 346.423 50.5194 346.091C50.5988 345.774 50.7513 345.481 50.8205 345.058C50.8897 344.626 50.9608 344.169 51.0381 343.699C51.1256 343.219 51.0829 342.706 51.1175 342.185C51.1582 341.662 51.1338 341.123 51.0707 340.578C51.0076 340.037 51.0117 339.479 50.9019 338.94C50.7981 338.393 50.6984 337.855 50.5988 337.337C50.5235 336.808 50.3364 336.315 50.2143 335.833C50.078 335.353 49.9499 334.899 49.8319 334.48C49.2237 332.822 48.8188 331.717 48.8188 331.717L48.7782 331.605C48.5076 330.875 48.8839 330.063 49.6162 329.795C50.2489 329.561 50.9405 329.811 51.2904 330.356C51.2904 330.356 51.9779 331.424 53.0093 333.029C53.2412 333.453 53.4914 333.915 53.7538 334.399C54.006 334.895 54.3274 335.394 54.5512 335.967C54.7973 336.535 55.0496 337.123 55.3059 337.721C55.5724 338.317 55.731 338.979 55.9487 339.621C56.1684 340.26 56.3474 340.92 56.4593 341.597C56.5732 342.27 56.7563 342.928 56.799 343.593C56.8417 344.262 56.8864 344.907 56.9292 345.522C56.9617 346.144 56.8702 346.82 56.8356 347.404C56.7827 347.971 56.738 348.628 56.6647 348.934C56.5956 349.302 56.5386 349.619 56.4898 349.884C56.3942 350.411 56.3392 350.712 56.3392 350.712C55.9833 352.659 54.1159 353.949 52.1712 353.595C50.2245 353.239 48.9328 351.371 49.2908 349.426C49.3376 349.166 49.4169 348.903 49.5145 348.671Z"/>
<path fill-rule="evenodd" clip-rule="evenodd" d="M68.2473 380.231C67.7327 377.647 67.2241 375.065 66.7074 372.481C70.8226 371.138 74.9154 369.79 79.0163 368.437C80.3914 367.981 81.1502 366.457 80.7108 364.925C80.2531 363.332 78.6725 362.331 77.2018 362.705C74.895 363.287 72.5842 363.889 70.2815 364.451C67.9727 365.018 65.6618 365.609 63.3591 366.176C62.7428 365.989 62.0837 365.963 61.4368 366.129C60.8347 366.296 60.3099 366.614 59.8969 367.049C57.7122 367.594 55.5316 368.15 53.3509 368.681C51.1764 369.21 48.9957 369.765 46.8069 370.3C46.7337 370.316 46.6544 370.333 46.5791 370.349C44.6629 370.984 43.5909 373.189 44.193 375.269C44.7951 377.358 46.8618 378.528 48.8004 377.901C52.521 376.841 56.2354 375.775 59.9498 374.715C60.5825 377.085 61.211 379.448 61.8477 381.816C60.6048 382.152 59.3721 382.483 58.1984 382.847C57.1406 383.144 56.152 383.511 55.1919 383.798C54.2317 384.101 53.3407 384.438 52.5128 384.727C49.2113 385.913 47.0571 386.949 47.0571 386.949C46.0299 387.468 45.3423 388.603 45.4257 389.856C45.5295 391.478 46.8741 392.707 48.4241 392.571C48.4241 392.571 50.8102 392.377 54.2846 391.708C55.1491 391.539 56.1032 391.372 57.0816 391.13C58.0743 390.91 59.1321 390.721 60.1919 390.43C61.3941 390.137 62.6472 389.812 63.9002 389.464C64.4108 391.378 64.9275 393.287 65.4401 395.177C65.8307 396.617 67.2648 397.571 68.7253 397.305C70.2632 397.022 71.266 395.515 70.9528 393.926C70.5459 391.865 70.131 389.791 69.7323 387.726C69.8991 387.69 70.0659 387.643 70.2286 387.582C71.3413 387.242 72.4093 386.853 73.4548 386.495C74.4963 386.133 75.4992 385.763 76.437 385.378C77.3869 385.028 78.2718 384.67 79.0794 384.306C82.3402 382.943 84.4313 381.771 84.4313 381.771C85.0355 381.441 85.4118 380.754 85.3528 379.983C85.2653 378.888 84.3439 378.03 83.284 378.044C83.284 378.044 80.8674 378.107 77.3788 378.593C76.5 378.697 75.5562 378.827 74.5675 379C73.581 379.163 72.5272 379.338 71.4613 379.564C70.4178 379.771 69.3315 379.968 68.2473 380.231Z"/>
<path fill-rule="evenodd" clip-rule="evenodd" d="M72.729 401.381C69.9157 402.156 67.1045 402.956 64.4804 403.725C61.8461 404.496 59.399 405.247 57.3078 405.945C53.1174 407.306 50.3611 408.36 50.3611 408.36C49.11 408.834 48.2882 410.14 48.4571 411.548C48.6584 413.147 50.0986 414.252 51.6772 414.018C51.6772 414.018 54.6227 413.568 58.9738 412.705C62.3567 412.034 66.5959 411.092 70.9959 410.008C70.9898 410.126 70.9756 410.233 70.9654 410.339C70.9369 411.086 70.7518 411.845 70.5789 412.659C70.5179 413.078 70.3327 413.456 70.2229 413.873C70.1517 414.087 70.0907 414.298 70.0215 414.496C69.932 414.701 69.8405 414.907 69.7469 415.102C69.4031 415.93 68.8925 416.703 68.3921 417.523C68.0911 417.902 67.79 418.282 67.4869 418.661C67.1696 419.021 66.7892 419.36 66.4535 419.735C66.1159 420.099 65.6887 420.404 65.2981 420.734C64.9076 421.063 64.517 421.393 64.0674 421.668C63.6281 421.95 63.2131 422.252 62.7757 422.522C62.3302 422.77 61.8746 423.023 61.421 423.275C60.5381 423.761 59.5861 424.123 58.7318 424.532C57.8774 424.862 57.023 425.165 56.1707 425.472C55.4262 425.708 54.6756 425.942 53.9412 426.166C53.2822 426.369 52.6739 426.483 52.1939 426.612C51.6751 426.752 51.1585 426.864 50.6458 426.992C50.5991 427.014 50.5482 427.025 50.4974 427.035C49.1629 427.366 48.2394 428.683 48.4367 430.064C48.632 431.505 49.9807 432.465 51.429 432.223C52.0027 432.117 52.5783 432.015 53.1499 431.922C53.6951 431.812 54.3603 431.722 55.1109 431.541C55.9673 431.34 56.8278 431.151 57.674 430.937C58.6789 430.646 59.6858 430.351 60.6866 430.048C61.7464 429.639 62.8774 429.295 64.0207 428.762C64.5923 428.496 65.172 428.215 65.7456 427.95C66.3254 427.647 66.9031 427.311 67.4828 426.984C68.0667 426.671 68.6301 426.268 69.1895 425.875C69.7449 425.462 70.3368 425.1 70.8413 424.616C71.3661 424.154 71.9133 423.708 72.4015 423.206C72.8755 422.695 73.3515 422.184 73.8214 421.664C74.6737 420.549 75.4854 419.415 76.0915 418.239C76.2482 417.952 76.3946 417.639 76.5513 417.338C76.6713 417.057 76.7954 416.766 76.9174 416.457C77.1432 415.863 77.428 415.291 77.5745 414.716C77.8959 413.546 78.2193 412.443 78.3373 411.42C78.3597 411.287 78.382 411.131 78.4064 410.976C80.105 411.778 81.828 412.577 83.5509 413.375C85.2495 414.166 86.948 414.945 88.6628 415.723C86.8341 416.663 84.568 417.36 82.2633 417.92C82.247 417.936 82.2226 417.94 82.1941 417.936C80.8739 418.276 79.9138 419.485 79.9809 420.897C80.048 422.526 81.4435 423.775 83.1054 423.729C85.9289 423.625 88.791 423.415 91.8728 422.579C92.6478 422.37 93.4371 422.093 94.2467 421.771C95.0502 421.395 95.8618 420.986 96.6857 420.386C97.0946 420.109 97.4953 419.765 97.894 419.377C98.2886 419.021 98.665 418.555 98.9986 418.087C99.3301 417.588 99.6536 417.074 99.8855 416.502C100.15 415.932 100.298 415.332 100.441 414.711C100.758 412.614 99.5539 410.545 97.4831 409.753C94.0494 408.435 90.6279 407.112 87.2226 405.784C88.317 405.472 89.4114 405.171 90.5078 404.87C92.2206 404.386 93.9294 403.877 95.634 403.371C96.285 403.182 96.9278 402.99 97.5645 402.779C99.3261 402.213 100.357 400.386 99.8489 398.543C99.3159 396.592 97.3082 395.346 95.3655 395.766C94.7125 395.912 94.0555 396.048 93.4106 396.189C91.6978 396.592 89.9769 396.99 88.258 397.371C86.354 397.853 84.1612 398.417 81.8097 399.003C79.4561 399.589 76.9378 400.227 74.4032 400.925C73.8438 400.958 73.3454 401.104 72.9019 401.34C72.8409 401.355 72.7839 401.367 72.729 401.381Z"/>
<path fill-rule="evenodd" clip-rule="evenodd" d="M77.7546 432.237C74.5446 433.067 71.3367 433.908 68.3424 434.746C65.346 435.576 62.5592 436.404 60.1853 437.151C55.4334 438.658 52.2967 439.842 52.2967 439.842C50.5941 440.479 49.5139 442.257 49.8191 444.042C50.1608 446.013 52.1014 447.285 54.1539 446.853C54.1539 446.853 57.4534 446.152 62.3151 444.849C64.7459 444.182 67.5735 443.368 70.582 442.447C72.6 441.834 74.7033 441.157 76.829 440.465C77.0711 441.674 77.3172 442.87 77.5715 444.072C73.8998 445.216 70.2444 446.351 66.5767 447.48C62.9091 448.607 59.2292 449.741 55.5555 450.87C55.5026 450.894 55.4599 450.902 55.409 450.914C53.3769 451.551 52.1177 453.612 52.5917 455.592C54.0746 461.791 55.5636 467.989 57.0608 474.161C57.4656 475.809 59.1906 476.839 61.0335 476.473C62.9559 476.068 64.2659 474.308 63.9567 472.526C63.0718 467.453 62.191 462.381 61.3041 457.299C64.2801 456.396 67.2643 455.472 70.2342 454.562C73.2122 453.651 76.1822 452.729 79.1521 451.804C80.2546 457.197 81.3571 462.564 82.4536 467.936C81.0357 468.343 79.624 468.749 78.2103 469.146C77.3864 466.908 76.5666 464.662 75.7469 462.412C75.2892 461.148 73.9283 460.363 72.4616 460.585C70.7977 460.849 69.6117 462.341 69.8314 463.911C70.3176 467.624 70.8058 471.348 71.2981 475.059C71.3225 475.203 71.3469 475.36 71.3916 475.514C71.9246 477.431 74.0544 478.475 76.1557 477.903C76.2839 477.862 76.412 477.822 76.5402 477.783C80.4987 476.67 84.4532 475.549 88.3995 474.414C92.3072 473.486 96.2271 472.581 100.141 471.653C100.241 471.63 100.34 471.61 100.428 471.565C100.523 471.557 100.617 471.535 100.708 471.504C102.818 470.837 103.979 468.772 103.302 466.874C101.76 462.589 100.247 458.328 98.723 454.025C98.2491 452.66 96.7316 451.793 95.1632 452.062C93.4362 452.341 92.2726 453.885 92.5615 455.488C93.1331 458.648 93.7006 461.81 94.2702 464.961C93.0009 465.264 91.7214 465.561 90.4479 465.856C88.902 460.493 87.3641 455.128 85.8283 449.749C88.4992 448.937 91.1538 448.103 93.8206 447.289C96.4875 446.477 99.1421 445.643 101.803 444.809C103.444 450.567 105.086 456.302 106.738 462.025C107.128 463.407 108.638 464.324 110.224 464.084C111.919 463.834 113.064 462.375 112.781 460.843C111.425 453.574 110.078 446.302 108.707 439.025C108.664 438.835 108.611 438.63 108.542 438.437C107.81 436.491 105.548 435.419 103.497 436.062C103.43 436.078 103.369 436.101 103.298 436.107C100.039 437.13 96.7641 438.142 93.4952 439.153C90.2323 440.164 86.9532 441.167 83.6843 442.194C83.3344 440.974 82.9926 439.753 82.6428 438.536C83.3283 438.302 84.0077 438.07 84.6932 437.834C86.2412 437.305 87.7872 436.801 89.2579 436.276C91.939 435.322 94.6241 434.365 97.3052 433.411C99.1848 432.703 101.06 431.973 102.94 431.265C103.642 430.994 104.35 430.709 105.066 430.433C106.034 430.032 106.603 429.039 106.347 428.005C106.062 426.846 104.842 426.087 103.619 426.311C102.871 426.465 102.122 426.62 101.376 426.752C99.4126 427.177 97.4476 427.59 95.4887 428.003C92.7242 428.64 89.9597 429.279 87.1993 429.904C85.692 430.251 84.1318 430.644 82.5553 431.041C80.9544 431.444 79.3494 431.838 77.7546 432.237Z"/>
<path fill-rule="evenodd" clip-rule="evenodd" d="M187.627 460.822C195.267 455.229 205.111 452.45 215.609 452.218C237.086 451.744 252.432 461.791 259.527 472.934C262.233 477.188 263.791 481.642 264.104 485.833C264.446 490.413 263.339 494.708 260.673 498.21C256.492 503.695 248.667 506.903 236.864 505.516C232.393 506.903 227.784 507.601 223.199 507.601C218.652 507.601 214.084 506.917 209.645 505.548C203.575 506.582 198.227 506.775 193.666 506.242C188.135 505.599 183.634 503.892 180.259 501.316C176.602 498.529 174.311 494.8 173.487 490.344C173.121 488.364 173.054 486.283 173.292 484.12C173.306 483.953 173.331 483.787 173.363 483.616C175.365 473.557 180.521 466.021 187.627 460.822ZM215.794 461.679C207.192 461.868 199.244 464.063 193.227 468.464C188.019 472.273 184.226 477.829 182.704 485.28C182.58 486.509 182.611 487.632 182.798 488.639C183.18 490.708 184.268 492.458 186.008 493.784C188.03 495.329 190.957 496.378 194.742 496.818C198.736 497.284 203.544 497.062 209.122 496.026C209.964 495.874 210.798 495.953 211.551 496.218C215.302 497.475 219.24 498.102 223.199 498.102C227.186 498.102 231.148 497.467 234.922 496.195C235.638 495.955 236.372 495.896 237.074 495.994C245.616 497.174 250.809 495.526 253.142 492.46C254.334 490.895 254.816 488.834 254.645 486.537C254.446 483.852 253.392 480.91 251.551 478.019C245.949 469.215 233.518 461.288 215.794 461.679Z"/>
<path fill-rule="evenodd" clip-rule="evenodd" d="M151.253 26.2267C153.865 26.2064 155.998 28.306 156.019 30.9204C156.039 33.5328 153.94 35.6671 151.328 35.6874C141.436 35.7749 132.225 36.4117 123.651 37.5775C115.213 38.725 107.383 40.4035 100.115 42.5988C97.607 43.3577 94.9585 41.9376 94.1997 39.429C93.443 36.9183 94.8608 34.2693 97.371 33.5104C105.02 31.1992 113.343 29.4189 122.39 28.1901C131.295 26.9795 140.903 26.3183 151.253 26.2267Z"/>
<path fill-rule="evenodd" clip-rule="evenodd" d="M43.7696 266.192C43.7696 263.579 45.8872 261.461 48.4991 261.461C51.111 261.461 53.2286 263.579 53.2286 266.192C53.2143 273.903 61.5179 281.266 72.7629 287.567C91.0584 297.819 116.528 304.667 129.678 306.602C132.269 306.983 134.063 309.389 133.685 311.984C133.307 314.576 130.898 316.37 128.306 315.992C114.421 313.947 87.5067 306.702 68.127 295.839C54.1033 287.982 43.7472 278.023 43.7696 266.192Z"/>
<path fill-rule="evenodd" clip-rule="evenodd" d="M178.348 314.618C179.023 316.461 178.077 318.504 176.234 319.18C174.391 319.855 172.347 318.909 171.671 317.066C170.164 312.993 167.428 309.509 163.911 307.062C160.502 304.687 156.35 303.296 151.868 303.296C147.367 303.296 143.209 304.687 139.806 307.064C136.291 309.513 133.555 313.013 132.049 317.113C131.372 318.956 129.33 319.904 127.487 319.228C125.644 318.551 124.696 316.508 125.373 314.663C127.381 309.202 131.038 304.529 135.743 301.249C140.331 298.049 145.89 296.173 151.868 296.173C157.851 296.173 163.402 298.038 167.973 301.219C172.668 304.488 176.326 309.151 178.348 314.618Z"/>
<path fill-rule="evenodd" clip-rule="evenodd" d="M123.888 328.033C123.642 326.09 125.019 324.314 126.962 324.07C128.904 323.824 130.68 325.199 130.926 327.144C131.597 332.353 134.175 336.971 137.938 340.275C141.648 343.535 146.524 345.512 151.87 345.512C157.202 345.512 162.066 343.547 165.77 340.304C169.529 337.012 172.114 332.408 172.802 327.215C173.054 325.272 174.836 323.901 176.779 324.153C178.724 324.408 180.095 326.19 179.84 328.133C178.919 335.093 175.467 341.25 170.444 345.647C165.471 349.998 158.974 352.635 151.87 352.635C144.748 352.635 138.237 349.986 133.263 345.618C128.235 341.201 124.787 335.018 123.888 328.033Z"/>
<path fill-rule="evenodd" clip-rule="evenodd" d="M178.035 330.779C175.793 332.004 173.085 332.372 170.447 331.597C167.467 330.724 164.416 330.063 161.322 329.624C158.248 329.184 155.113 328.965 151.938 328.965C148.767 328.965 145.63 329.184 142.558 329.624C139.464 330.063 136.413 330.724 133.433 331.597C130.793 332.372 128.085 332.004 125.845 330.781C123.689 329.605 121.968 327.642 121.146 325.152C121.065 324.952 121.002 324.741 120.961 324.525C120.302 321.986 120.691 319.402 121.864 317.25C123.04 315.093 125.003 313.368 127.493 312.548C127.678 312.476 127.867 312.417 128.067 312.375C131.94 311.252 135.856 310.407 139.78 309.84C143.848 309.254 147.912 308.959 151.938 308.959C155.966 308.959 160.03 309.254 164.098 309.84C168.108 310.419 172.107 311.288 176.061 312.448L176.072 312.452C178.712 313.227 180.789 315.005 182.013 317.25C183.236 319.485 183.604 322.185 182.835 324.82L182.831 324.836C182.058 327.477 180.28 329.555 178.035 330.779ZM172.449 324.781C173.214 325.005 173.997 324.897 174.642 324.547C175.233 324.222 175.714 323.687 175.96 323.005C175.988 322.887 176.023 322.775 176.059 322.666C176.222 321.955 176.108 321.241 175.783 320.645C175.457 320.051 174.922 319.569 174.239 319.323C174.096 319.29 173.96 319.247 173.828 319.199C170.297 318.175 166.71 317.402 163.098 316.879C159.416 316.348 155.685 316.082 151.938 316.082C148.193 316.082 144.464 316.348 140.782 316.879C137.086 317.414 133.419 318.21 129.808 319.27H129.804C129.043 319.496 128.445 320.004 128.097 320.643C127.745 321.288 127.64 322.071 127.863 322.834V322.838C128.091 323.601 128.6 324.2 129.238 324.547C129.883 324.897 130.664 325.005 131.429 324.781C134.763 323.803 138.146 323.07 141.555 322.584C145.02 322.09 148.49 321.842 151.938 321.842C155.39 321.842 158.86 322.09 162.322 322.584C165.732 323.07 169.117 323.803 172.449 324.781Z"/>
<path fill-rule="evenodd" clip-rule="evenodd" d="M148.857 345.095V349.555H154.884V345.034C154.884 342.008 154.648 343.217 156.45 341.412C157.622 340.242 158.348 338.623 158.348 336.835C158.348 333.258 155.448 330.357 151.869 330.357C148.293 330.357 145.393 333.258 145.393 336.835C145.393 338.649 146.141 340.291 147.341 341.467C149.097 343.184 148.857 342.2 148.857 345.095Z"/>
<path fill-rule="evenodd" clip-rule="evenodd" d="M30.228 114.042C30.5962 116.632 28.7939 119.035 26.2024 119.403C23.6128 119.771 21.2104 117.969 20.8423 115.377C14.9248 74.4534 10.2197 35.0256 18.9972 15.0137C28.8163 -7.36856 52.2827 -7.67781 101.803 34.4559C103.79 36.1466 104.031 39.1293 102.342 41.115C100.652 43.1028 97.6696 43.3429 95.6842 41.6542C53.3751 5.65671 34.4164 3.43903 27.6792 18.7979C19.9004 36.5271 24.5079 74.4941 30.228 114.042Z"/>
<path fill-rule="evenodd" clip-rule="evenodd" d="M273.798 116.045C273.062 113.536 274.498 110.901 277.006 110.165C279.517 109.428 282.149 110.865 282.887 113.373C285.749 123.025 288.03 133.412 289.82 144.49C291.573 155.361 292.847 166.813 293.729 178.827C294.991 182.477 296.018 186.011 296.815 189.433C297.68 193.13 298.292 196.754 298.666 200.302C298.931 202.902 297.039 205.228 294.437 205.494C291.836 205.763 289.51 203.869 289.244 201.266C288.921 198.192 288.369 194.967 287.578 191.586C286.817 188.322 285.837 184.963 284.624 181.507C284.458 181.075 284.35 180.611 284.317 180.125C283.445 168.032 282.191 156.632 280.471 145.975C278.754 135.338 276.559 125.351 273.798 116.045Z"/>
<path fill-rule="evenodd" clip-rule="evenodd" d="M276.576 243.992C278.254 241.983 281.244 241.719 283.252 243.397C285.26 245.078 285.524 248.067 283.846 250.077C280.813 253.698 277.361 257.084 273.569 260.246C269.609 263.546 265.361 266.535 260.906 269.23C260.786 269.302 260.666 269.367 260.542 269.428C258.494 270.62 256.506 271.729 254.586 272.744C252.385 273.912 250.27 274.976 248.25 275.94L247.973 276.058C234.395 282.331 219.421 286.408 204.789 288.966C185.501 292.337 166.689 293.079 152.498 292.752C149.886 292.703 147.809 290.542 147.86 287.93C147.911 285.318 150.071 283.242 152.683 283.293C166.329 283.607 184.459 282.886 203.156 279.617C217.084 277.181 231.266 273.332 244.01 267.45L244.169 267.371C246.299 266.355 248.305 265.352 250.174 264.36C252.143 263.318 254.013 262.282 255.778 261.255L256.01 261.106C260.17 258.588 264.037 255.88 267.524 252.974C270.821 250.225 273.858 247.237 276.576 243.992Z"/>
<path fill-rule="evenodd" clip-rule="evenodd" d="M152.553 35.6872C149.941 35.6668 147.84 33.5326 147.86 30.9202C147.881 28.3078 150.015 26.2061 152.627 26.2264C162.979 26.318 172.584 26.9792 181.492 28.1898C190.538 29.4187 198.862 31.1989 206.508 33.5102C209.018 34.2691 210.438 36.9181 209.68 39.4287C208.921 41.9373 206.272 43.3595 203.764 42.5986C196.498 40.4033 188.666 38.7248 180.229 37.5773C171.654 36.4115 162.442 35.7746 152.553 35.6872Z"/>
<path fill-rule="evenodd" clip-rule="evenodd" d="M283.035 115.377C282.665 117.969 280.267 119.772 277.675 119.403C275.084 119.033 273.281 116.632 273.652 114.042C279.37 74.4925 283.977 36.5276 276.2 18.7964C269.463 3.43748 250.505 5.65515 208.195 41.6547C206.208 43.3434 203.228 43.1033 201.537 41.1155C199.847 39.1278 200.089 36.1471 202.074 34.4564C251.597 -7.67732 275.061 -7.37012 284.878 15.0121C293.658 35.0261 288.953 74.4539 283.035 115.377Z"/>
<path fill-rule="evenodd" clip-rule="evenodd" d="M254.245 347.139C254.245 347.139 255.524 346.82 257.927 346.222C259.125 345.921 260.606 345.554 262.345 345.119C262.78 345.011 263.234 344.897 263.7 344.783C264.129 344.637 264.572 344.484 265.03 344.329C265.945 344.02 266.918 343.691 267.945 343.339C269.998 342.625 272.292 341.971 274.725 340.822C275.95 340.293 277.223 339.744 278.545 339.174C279.206 338.887 279.88 338.596 280.563 338.299C281.218 337.947 281.883 337.593 282.563 337.229C285.254 335.742 288.236 334.356 291.053 332.364C292.496 331.424 293.977 330.464 295.492 329.477C296.914 328.364 298.364 327.227 299.849 326.063C300.594 325.481 301.342 324.895 302.101 324.303C302.803 323.646 303.511 322.983 304.225 322.316C305.639 320.961 307.134 319.636 308.558 318.191C309.898 316.674 311.263 315.134 312.648 313.565L313.694 312.387C314.019 311.974 314.316 311.538 314.634 311.113C315.256 310.255 315.885 309.392 316.515 308.523C317.15 307.657 317.787 306.782 318.432 305.903C319.032 304.997 319.55 304.031 320.12 303.089C320.679 302.139 321.243 301.185 321.808 300.226L322.665 298.782C322.935 298.293 323.143 297.771 323.387 297.262C324.331 295.219 325.287 293.154 326.251 291.067C327.004 288.896 327.764 286.707 328.531 284.495C331.229 275.539 332.459 265.83 332.077 255.968C331.888 253.523 331.772 250.996 331.54 248.589C331.2 245.903 330.848 243.629 330.348 241.126C329.396 236.213 327.984 231.426 326.111 226.935C324.192 222.486 321.762 218.317 318.623 215.049C317.122 213.365 315.283 211.985 313.55 210.819C313.01 210.496 312.398 210.093 311.918 209.837L310.515 209.09C309.483 208.604 308.448 208.132 307.376 207.735C303.108 206.14 298.533 205.397 294.064 205.53C289.597 205.684 285.24 206.716 281.47 208.567C277.701 210.417 274.536 213.086 272.441 216.329C270.349 219.529 269.151 223.369 269.039 227.057C269.009 228.158 268.901 229.45 269.033 230.136L269.117 231.358C269.166 231.769 269.279 232.188 269.351 232.602C269.631 234.288 270.288 235.651 271.059 236.821C271.798 238.024 272.943 238.848 274.117 239.686C275.378 240.445 276.82 241.063 278.389 241.501C281.509 242.412 284.987 242.746 288.332 242.917C290.077 242.964 291.776 243.006 293.431 243.049C295.081 243.084 296.674 243.084 298.189 243.051C304.272 242.992 309.03 241.999 311.981 240.02C314.955 238.087 316.505 235.307 317.201 233.212C317.642 232.211 317.781 231.326 317.988 230.777C318.157 230.209 318.246 229.914 318.246 229.914L318.328 229.641C318.682 228.473 319.915 227.81 321.082 228.162C322.083 228.463 322.71 229.405 322.657 230.402C322.657 230.402 322.636 230.758 322.6 231.452C322.518 232.148 322.6 233.189 322.288 234.551C322.144 235.236 321.983 236.001 321.806 236.848C321.507 237.684 321.182 238.599 320.83 239.588C319.888 241.488 318.578 243.743 316.393 245.598C314.266 247.486 311.499 249.012 308.474 250.048C305.433 251.061 302.162 251.655 298.773 251.997C297.079 252.162 295.352 252.288 293.588 252.384C292.728 252.426 291.855 252.471 290.97 252.514C290.042 252.53 289.101 252.55 288.147 252.569C286.222 252.581 284.212 252.506 282.129 252.294C281.084 252.182 280.014 252.009 278.938 251.853C277.843 251.598 276.751 251.407 275.63 251.051C273.393 250.408 271.076 249.46 268.824 248.064C266.621 246.597 264.434 244.705 262.916 242.247C261.377 239.851 260.327 237.12 259.894 234.455C259.782 233.782 259.635 233.12 259.562 232.431L259.442 230.319C259.328 228.772 259.458 227.812 259.499 226.646C259.78 221.283 261.393 215.888 264.509 211.106C267.601 206.333 272.176 202.541 277.278 200.046C287.544 195.039 299.802 194.771 310.72 198.846C312.087 199.353 313.421 199.955 314.744 200.588L316.794 201.686C317.461 202.057 317.937 202.378 318.519 202.726C321.137 204.445 323.491 206.293 325.519 208.52C327.577 210.687 329.376 213.06 330.887 215.546C332.457 218.012 333.704 220.604 334.848 223.214C337.044 228.467 338.611 233.865 339.658 239.273C340.199 241.926 340.641 244.841 340.952 247.35C341.237 250.144 341.361 252.833 341.564 255.568C341.996 266.467 340.627 277.291 337.606 287.286C336.749 289.752 335.901 292.196 335.059 294.619C333.985 296.945 332.923 299.25 331.869 301.53C331.597 302.094 331.357 302.676 331.06 303.223L330.114 304.83C329.483 305.899 328.859 306.965 328.234 308.019C327.6 309.066 327.014 310.139 326.347 311.15C325.637 312.126 324.929 313.099 324.227 314.063C323.525 315.028 322.825 315.986 322.132 316.936C321.782 317.408 321.448 317.892 321.084 318.348L319.935 319.656C318.399 321.39 316.888 323.099 315.401 324.777C313.83 326.372 312.187 327.839 310.624 329.329C309.835 330.065 309.052 330.796 308.277 331.518C307.445 332.173 306.623 332.818 305.807 333.459C304.174 334.734 302.575 335.986 301.011 337.206C299.353 338.289 297.732 339.347 296.153 340.374C293.053 342.545 289.817 344.077 286.873 345.691C286.135 346.083 285.404 346.472 284.688 346.854C283.946 347.18 283.214 347.497 282.5 347.811C281.061 348.431 279.674 349.029 278.342 349.601C275.732 350.828 273.104 351.607 270.793 352.399C269.631 352.787 268.533 353.155 267.5 353.501C266.983 353.672 266.482 353.837 265.996 353.998C265.53 354.114 265.079 354.226 264.644 354.335C262.904 354.769 261.423 355.139 260.223 355.438C257.823 356.034 256.543 356.354 256.543 356.354C253.999 356.989 253.956 355.308 253.323 352.765C252.687 350.218 251.7 347.774 254.245 347.139Z"/>
<path fill-rule="evenodd" clip-rule="evenodd" d="M20.9914 113.373C21.7298 110.865 24.362 109.428 26.8702 110.165C29.3804 110.901 30.8165 113.536 30.0781 116.045C27.3401 125.288 25.4727 135.235 24.0772 145.845C22.6818 156.459 21.742 167.952 20.8632 180.125C20.8286 180.607 20.7229 181.067 20.5581 181.496C14.8685 197.736 14.5593 213.207 19.4311 226.806C24.2603 240.285 34.2401 252.075 49.173 261.105L49.4049 261.255C51.1686 262.281 53.038 263.318 55.0051 264.36C56.8786 265.351 58.8802 266.356 61.012 267.369L61.1687 267.449C73.9149 273.332 88.0953 277.182 102.023 279.617C120.72 282.885 138.85 283.607 152.496 283.294C155.108 283.241 157.268 285.318 157.319 287.93C157.37 290.543 155.293 292.704 152.683 292.752C138.49 293.08 119.68 292.337 100.392 288.968C85.7559 286.409 70.7863 282.331 57.2061 276.059L56.9314 275.939C54.9095 274.978 52.7939 273.91 50.5909 272.744C48.6726 271.729 46.6852 270.62 44.6388 269.428C44.5148 269.367 44.3947 269.304 44.2747 269.229C27.4296 259.044 16.1032 245.553 10.5295 229.996C4.95991 214.45 5.18977 196.983 11.449 178.833C12.3135 166.896 13.2574 155.531 14.6915 144.62C16.152 133.515 18.1089 123.09 20.9914 113.373Z"/>
<path fill-rule="evenodd" clip-rule="evenodd" d="M252.364 334.517C252.364 334.517 253.263 336.724 254.834 340.588C255.598 342.539 256.522 344.907 257.582 347.625C258.666 350.342 259.766 353.444 260.989 356.822C262.191 360.209 263.491 363.88 264.799 367.79C266.146 371.688 267.401 375.857 268.705 380.168C269.98 384.494 271.249 388.982 272.452 393.574C273.648 398.172 274.783 402.872 275.706 407.635C277.641 417.132 279.036 426.819 279.451 436.119C279.614 440.77 279.464 445.325 279.012 449.675C278.546 454.023 277.757 458.179 276.5 461.972C275.277 465.764 273.562 469.146 271.669 471.941C269.797 474.761 267.671 476.928 265.794 478.505C264.858 479.308 263.983 479.97 263.174 480.476C262.391 481.015 261.713 481.455 261.131 481.75C259.988 482.374 259.378 482.706 259.378 482.706C257.081 483.959 254.203 483.117 252.948 480.818C251.727 478.584 252.494 475.795 254.655 474.493L255.043 474.259C255.043 474.259 255.468 474.002 256.266 473.52C256.679 473.302 257.14 472.969 257.671 472.57C258.231 472.2 258.814 471.709 259.449 471.14C260.733 470.021 262.167 468.513 263.463 466.458C264.787 464.432 265.977 461.88 266.961 458.879C268.939 452.863 269.649 444.983 269.38 436.452C269.144 427.895 267.985 418.648 266.266 409.456C265.424 404.858 264.437 400.268 263.471 395.743C262.468 391.224 261.39 386.787 260.295 382.5C259.15 378.221 258.043 374.087 256.992 370.164C255.938 366.24 254.872 362.539 253.888 359.127C251.868 352.305 250.183 346.622 249.004 342.643C247.803 338.649 247.12 336.364 247.12 336.364C246.678 334.893 247.515 333.341 248.987 332.897C250.371 332.484 251.827 333.206 252.364 334.517Z"/>
<path fill-rule="evenodd" clip-rule="evenodd" d="M177.945 479.795C180.555 479.754 182.707 481.84 182.748 484.45C182.788 487.062 180.703 489.215 178.091 489.256C174.015 489.331 166.83 489.396 158.874 489.449C150.972 489.502 142.316 489.545 135.213 489.575C132.599 489.585 130.475 487.475 130.465 484.863C130.455 482.251 132.562 480.125 135.176 480.114C142.279 480.084 150.935 480.041 158.838 479.988C166.694 479.935 173.82 479.87 177.945 479.795Z"/>
<path fill-rule="evenodd" clip-rule="evenodd" d="M2.38734 349.815C0.503683 345.537 0.0948101 340.603 1.16479 335.01L1.20548 334.723C3.00167 324.524 9.2324 316.595 17.4627 311.391C22.1454 308.43 27.471 306.367 32.9673 305.285C38.4719 304.203 44.1818 304.095 49.6253 305.055C59.247 306.75 68.0653 311.751 73.6247 320.546C75.0283 322.77 76.0393 324.918 76.7004 326.984C78.4213 332.363 77.8192 337.087 75.6487 341.207C73.6328 345.032 70.2866 348.165 66.263 350.711C62.3533 353.183 57.7621 355.113 53.1872 356.576C48.2238 358.165 41.517 360.285 34.6537 361.51C27.475 362.79 20.0319 363.101 13.7971 360.957C13.4655 360.865 13.138 360.733 12.8207 360.562C7.83287 357.862 4.35237 354.279 2.38734 349.815ZM10.4468 336.827C9.76332 340.448 9.97081 343.506 11.0672 345.994C12.1311 348.412 14.1246 350.436 17.0457 352.07C21.4518 353.522 27.2431 353.189 33.0202 352.159C39.4076 351.024 45.6648 349.044 50.2946 347.563C54.1819 346.318 58.0326 344.709 61.2182 342.696C63.9175 340.989 66.0901 339.022 67.2658 336.792C68.285 334.855 68.5474 332.566 67.6869 329.879C67.2658 328.562 66.5864 327.136 65.612 325.594C61.623 319.281 55.1359 315.663 47.9919 314.406C43.6957 313.649 39.1675 313.737 34.7839 314.597C30.3941 315.46 26.1752 317.087 22.5075 319.407C16.4314 323.246 11.8463 329.018 10.5546 336.357C10.5241 336.518 10.4895 336.674 10.4468 336.827Z"/>
<path fill-rule="evenodd" clip-rule="evenodd" d="M73.9706 337.467C71.4198 338.029 68.8953 336.417 68.3319 333.866C67.7684 331.317 69.3795 328.79 71.9304 328.228L74.3897 327.683V327.667C80.3722 326.348 86.3467 326.188 92.0343 327.018C97.9822 327.886 103.613 329.842 108.615 332.69C113.658 335.561 118.072 339.353 121.53 343.878C124.88 348.262 127.34 353.343 128.615 358.954L131.237 370.48L133.849 382.01L141.642 416.559L144.225 428.107C145.46 433.637 147.202 441.346 148.953 449.089L149.411 451.118C150.684 456.743 150.643 462.385 149.484 467.773C148.282 473.343 145.887 478.647 142.511 483.374C139.173 488.051 134.862 492.179 129.797 495.463C124.947 498.611 119.394 500.989 113.328 502.34L75.3885 510.777C69.3164 512.128 63.281 512.328 57.5649 511.534C51.6027 510.704 45.9558 508.783 40.9395 505.949L40.9252 505.941L40.9211 505.949C35.8682 503.089 31.4662 499.294 28.0305 494.761C24.6822 490.342 22.2473 485.231 21.0105 479.608C20.3351 476.548 19.1411 471.067 17.9511 465.598L5.89441 410.243C4.77561 405.106 3.65884 399.953 2.5441 394.795L0.876068 387.086C-0.338344 381.465 -0.259012 375.827 0.920819 370.439C2.13726 364.881 4.53558 359.579 7.89809 354.844C8.22153 354.389 8.52463 353.978 8.80128 353.613C9.05148 353.282 9.36678 352.885 9.74107 352.429C11.3908 350.399 14.3709 350.092 16.399 351.742C18.4271 353.39 18.7342 356.372 17.0845 358.401C16.8831 358.649 16.6309 358.97 16.3319 359.365C16.0552 359.725 15.8172 360.051 15.6138 360.336C13.0019 364.014 11.1386 368.128 10.1947 372.441C9.29558 376.547 9.23049 380.83 10.1499 385.082L11.818 392.791C12.9347 397.951 14.0495 403.104 15.1683 408.237L27.227 463.594C28.0671 467.461 28.9072 471.319 30.2823 477.567C31.2221 481.834 33.0651 485.703 35.5977 489.046C38.2523 492.55 41.6657 495.49 45.5957 497.713L45.5916 497.721C49.5522 499.957 54.06 501.479 58.8627 502.147C63.519 502.796 68.4254 502.633 73.3482 501.54L111.288 493.101C116.202 492.008 120.706 490.08 124.642 487.526C128.699 484.894 132.142 481.602 134.795 477.884C137.423 474.202 139.284 470.096 140.21 465.807C141.095 461.702 141.131 457.425 140.175 453.195L139.718 451.169C138.306 444.933 136.882 438.63 134.988 430.148C131.542 414.791 128.078 399.438 124.612 384.085L122 372.557L119.378 361.031C118.42 356.814 116.552 352.968 113.999 349.63C111.316 346.118 107.877 343.17 103.94 340.928C99.9574 338.659 95.4598 337.099 90.6998 336.405C86.1229 335.736 81.2917 335.87 76.4279 336.94L76.4259 336.924L73.9706 337.467Z"/>
<path fill-rule="evenodd" clip-rule="evenodd" d="M30.6381 357.173C33.7667 355.134 37.2919 353.645 41.0532 352.817L59.3792 348.782C66.4073 347.228 68.7446 346.715 70.8968 346.245L77.7398 344.744C81.4807 343.92 85.2907 343.791 88.9767 344.324C92.6728 344.86 96.2428 346.064 99.4873 347.907C102.638 349.698 105.389 352.029 107.545 354.792C109.644 357.48 111.178 360.57 111.971 363.964L114.605 375.231L117.219 386.503L118.887 393.73C119.947 398.326 120.997 402.879 122.421 409.001L125.041 420.285L132.84 454.089C133.601 457.377 133.576 460.681 132.881 463.849C132.163 467.112 130.728 470.239 128.702 473.055C126.428 476.213 123.548 478.85 120.305 480.915C116.935 483.063 113.165 484.599 109.276 485.466L90.5165 489.621C86.1552 490.585 81.796 491.558 77.4428 492.526L71.7613 493.792C67.8821 494.654 63.8198 494.87 59.8572 494.351C56.0574 493.855 52.349 492.691 48.9743 490.791C45.9678 489.096 43.3599 486.87 41.3359 484.215C39.3668 481.635 37.947 478.652 37.2452 475.36C35.7053 468.154 34.1776 460.944 32.656 453.766L27.6356 430.065C26.5331 424.879 25.1621 418.368 23.7829 411.831L18.0688 384.719C17.3467 381.29 17.424 377.836 18.1848 374.517C18.97 371.097 20.4794 367.822 22.5847 364.872C24.7532 361.828 27.4932 359.224 30.6381 357.173ZM42.056 357.456C38.8522 358.159 35.8578 359.421 33.2175 361.144C30.571 362.869 28.2662 365.059 26.4416 367.618C24.6983 370.066 23.4472 372.768 22.8024 375.575C22.1921 378.241 22.127 381.012 22.7068 383.752L28.4208 410.867C29.6027 416.478 30.7927 422.122 32.2736 429.082L37.2919 452.781C38.8156 459.961 40.3432 467.171 41.8811 474.376C42.4323 476.962 43.5491 479.307 45.1012 481.34C46.7286 483.474 48.8421 485.273 51.2933 486.654C54.1391 488.26 57.2677 489.24 60.4695 489.657C63.8829 490.105 67.3878 489.918 70.7422 489.173L76.4216 487.91C80.7768 486.937 85.1361 485.967 89.4974 485.002L108.255 480.846C111.615 480.099 114.864 478.779 117.765 476.927C120.513 475.175 122.948 472.947 124.862 470.292C126.501 468.012 127.665 465.483 128.243 462.846C128.796 460.333 128.82 457.725 128.222 455.145L120.423 421.341L117.803 410.075C116.857 406.01 115.557 400.369 114.27 394.786L112.602 387.561L109.988 376.308L107.354 365.038C106.719 362.322 105.492 359.85 103.816 357.704C102.048 355.437 99.7721 353.517 97.15 352.027C94.4303 350.479 91.4258 349.468 88.3095 349.016C85.1829 348.564 81.9404 348.676 78.7406 349.38L60.3983 353.401L42.056 357.456Z"/>
<path fill-rule="evenodd" clip-rule="evenodd" d="M44.9864 262.029C47.3217 260.861 50.1614 261.809 51.329 264.143C52.4966 266.481 51.5507 269.321 49.2155 270.487C38.6906 275.756 30.0371 285.056 23.5867 295.901C16.1029 308.476 11.6236 323.066 10.6086 335.91C10.4031 338.525 8.11874 340.476 5.50887 340.27C2.89697 340.065 0.944146 337.78 1.1496 335.168C2.2684 321.025 7.20742 304.952 15.4622 291.077C22.7771 278.782 32.7263 268.169 44.9864 262.029Z"/>
<path fill-rule="evenodd" clip-rule="evenodd" d="M250.487 266.754C250.629 264.142 252.863 262.14 255.475 262.284C258.086 262.427 260.088 264.663 259.944 267.275C259.301 278.829 248.766 288.553 234.803 296.225C215.492 306.837 189.125 313.911 175.433 315.93C172.842 316.306 170.433 314.514 170.055 311.921C169.674 309.329 171.469 306.921 174.062 306.542C187.036 304.63 211.998 297.94 230.24 287.914C241.555 281.698 250.059 274.414 250.487 266.754Z"/>
<path fill-rule="evenodd" clip-rule="evenodd" d="M172.145 35.0276C172.541 35.6807 172.849 36.3338 173.038 36.9808C173.219 37.5932 173.314 38.2382 173.314 38.9157C173.314 41.994 171.15 44.9034 167.645 47.1129C163.687 49.6114 158.135 51.1576 151.941 51.1576C145.743 51.1576 140.192 49.6114 136.233 47.1129C132.728 44.9034 130.564 41.994 130.564 38.9157C130.564 38.1832 130.678 37.4854 130.883 36.8343C131.117 36.1039 131.471 35.3898 131.931 34.7041C132.964 33.164 132.553 31.0765 131.007 30.045C129.469 29.0135 127.386 29.4265 126.355 30.9666C125.547 32.1731 124.917 33.4508 124.492 34.7794C124.056 36.1344 123.831 37.5179 123.831 38.9157C123.831 44.4558 127.201 49.355 132.653 52.7954C137.649 55.947 144.472 57.8941 151.941 57.8941C159.407 57.8941 166.231 55.947 171.223 52.7954C176.679 49.355 180.05 44.4558 180.05 38.9157C180.05 37.6217 179.854 36.3419 179.484 35.0866C179.108 33.8211 178.569 32.6228 177.879 31.5017C176.903 29.9168 174.83 29.4224 173.249 30.397C171.667 31.3695 171.17 33.4427 172.145 35.0276ZM151.939 30.987C143.591 30.987 136.823 34.7224 136.823 39.3287C136.823 43.937 143.591 47.6724 151.939 47.6724C160.287 47.6724 167.055 43.937 167.055 39.3287C167.055 34.7224 160.287 30.987 151.939 30.987ZM186.376 36.1649C185.991 34.3501 187.151 32.5638 188.967 32.1792C190.782 31.7947 192.568 32.9544 192.952 34.7713C193.109 35.5037 193.229 36.2585 193.31 37.0357L193.319 37.1293C193.398 37.9045 193.441 38.639 193.441 39.3287C193.441 47.7477 188.616 55.2817 180.812 60.6529C173.367 65.776 163.154 68.9458 151.939 68.9458C140.725 68.9458 130.513 65.776 123.068 60.6529C115.265 55.2817 110.438 47.7477 110.438 39.3287C110.438 38.582 110.482 37.7946 110.574 36.9727C110.655 36.2117 110.787 35.4244 110.964 34.6227C111.365 32.814 113.155 31.6706 114.966 32.0694C116.774 32.4681 117.915 34.2606 117.516 36.0693C117.405 36.5718 117.317 37.111 117.254 37.6848C117.201 38.1832 117.173 38.7326 117.173 39.3287C117.173 45.4059 120.885 50.9989 126.884 55.125C133.239 59.5034 142.096 62.2094 151.939 62.2094C161.783 62.2094 170.641 59.5034 176.996 55.125C182.995 50.9989 186.705 45.4059 186.705 39.3287C186.705 38.7732 186.683 38.2687 186.638 37.815L186.628 37.7478C186.575 37.229 186.49 36.7 186.376 36.1649Z"/>
<path fill-rule="evenodd" clip-rule="evenodd" d="M135.502 128.521C138.755 128.521 141.405 123.508 141.405 117.359C141.405 111.211 138.755 106.198 135.502 106.198C132.251 106.198 129.599 111.211 129.599 117.359C129.599 123.508 132.251 128.521 135.502 128.521Z"/>
<path fill-rule="evenodd" clip-rule="evenodd" d="M167.166 128.521C170.419 128.521 173.069 123.508 173.069 117.359C173.069 111.211 170.419 106.198 167.166 106.198C163.915 106.198 161.263 111.211 161.263 117.359C161.263 123.508 163.915 128.521 167.166 128.521Z"/>
<path fill-rule="evenodd" clip-rule="evenodd" d="M153.689 202.909C155.339 203.611 156.726 205.191 158.294 206.473C164.688 211.696 173.758 210.679 177.599 202.801C178.447 201.063 178.217 200.738 178.807 199.017C179.999 196.195 183.628 196.618 183.86 200.044C184.143 204.268 183.5 207.411 181.236 211.088C175.013 221.187 160.416 222.186 151.787 214.463C145.446 219.667 135.939 220.902 128.788 216.542C122.712 212.833 119.433 206.671 120.023 199.633C120.047 199.336 120.072 199.043 120.096 198.744C120.212 197.324 121.459 196.264 122.879 196.38C125.959 197.177 125.06 199.784 126.498 202.634C130.524 210.614 139.338 211.208 145.937 205.94C148.274 204.074 150.715 201.399 153.689 202.909Z"/>
<path fill-rule="evenodd" clip-rule="evenodd" d="M165.3 218.81C162.924 218.802 160.529 218.371 158.273 217.52C156.107 216.704 154.065 215.496 152.289 213.907L151.807 213.478L151.308 213.885C149.461 215.402 147.33 216.572 145.063 217.345C142.785 218.123 140.371 218.501 137.976 218.436L136.758 218.403L137.277 219.506C138.418 221.948 139.554 224.131 140.684 226.054C144.117 224.7 147.753 224.045 151.38 224.089C155.151 224.133 158.91 224.933 162.426 226.48C163.602 224.55 164.786 222.351 165.977 219.889L166.494 218.814L165.3 218.81ZM148.973 235.542C149.845 235.956 150.676 236.167 151.467 236.173C152.998 236.184 154.681 235.445 156.514 233.956C155.777 234.601 155.061 235.111 154.37 235.483C153.397 236.008 152.466 236.267 151.577 236.261C150.74 236.255 149.87 236.015 148.973 235.542Z"/>
<path fill-rule="evenodd" clip-rule="evenodd" d="M128.444 208.567C125.999 209.52 124.79 212.272 125.74 214.714C130.278 226.327 134.947 234.539 139.733 239.34C139.833 239.44 139.935 239.533 140.041 239.623C143.682 243.171 147.512 244.964 151.532 244.994C155.647 245.025 159.591 243.198 163.358 239.515C168.188 234.795 172.921 226.71 177.553 215.271C178.532 212.842 177.352 210.075 174.917 209.098C172.484 208.12 169.721 209.3 168.743 211.731C166.361 217.616 164.022 222.433 161.727 226.184C162.088 226.331 162.446 226.486 162.802 226.649C161.156 229.107 159.533 231.119 157.926 232.69C155.538 235.025 153.384 236.187 151.467 236.173C149.641 236.158 147.596 235.056 145.342 232.871L145.076 232.584C143.443 230.944 141.793 228.842 140.131 226.279C140.551 226.103 140.973 225.938 141.399 225.783C139.157 221.988 136.886 217.15 134.587 211.271C133.637 208.828 130.885 207.619 128.444 208.567Z"/>
<path fill-rule="evenodd" clip-rule="evenodd" d="M272.153 442.781C272.286 440.773 272.339 438.651 272.312 436.428L272.245 436.464C271.751 436.727 271.206 436.92 270.622 437.036C267.957 437.567 265.07 436.196 262.552 433.547C259.708 430.552 257.414 426.017 256.344 420.658C255.272 415.297 255.654 410.226 257.131 406.371C258.437 402.959 260.579 400.583 263.242 400.05C263.876 399.925 264.497 399.901 265.097 399.968C265.768 400.041 266.446 400.225 267.121 400.507C267.18 400.53 267.239 400.554 267.3 400.575C266.812 398.463 266.287 396.294 265.727 394.08C264.495 393.942 263.276 393.987 262.08 394.225C257.286 395.181 253.634 398.943 251.598 404.253C249.735 409.118 249.226 415.36 250.516 421.821C251.808 428.281 254.67 433.848 258.256 437.624C262.174 441.748 266.991 443.819 271.783 442.863C271.909 442.836 272.029 442.812 272.153 442.781ZM272.029 429.809C271.549 423.14 270.463 415.63 268.744 407.225C267.231 405.866 265.563 405.217 263.966 405.535C259.981 406.332 257.916 412.831 259.358 420.055C260.799 427.278 265.199 432.489 269.184 431.693C270.292 431.469 271.254 430.806 272.029 429.809ZM270.087 454.891C264.039 454.93 258.107 452.126 253.115 447.276C247.399 441.719 242.894 433.431 240.959 423.728C239.025 414.025 240.001 404.642 243.146 397.315C246.445 389.639 252.127 384.162 259.407 382.709C260.056 382.579 260.746 382.483 261.47 382.42C261.826 382.388 262.192 382.367 262.564 382.357C263.13 384.339 263.671 386.284 264.188 388.192C263.952 388.249 263.705 388.276 263.451 388.269C262.998 388.261 262.515 388.28 262.009 388.32C261.568 388.363 261.087 388.432 260.571 388.536C255.316 389.584 251.12 393.759 248.585 399.663C245.9 405.917 245.087 414.047 246.785 422.562C248.486 431.081 252.355 438.275 257.237 443.022C261.521 447.186 266.561 449.418 271.472 448.865C271.118 451.021 270.658 453.03 270.087 454.891Z"/>
<path fill-rule="evenodd" clip-rule="evenodd" d="M277.676 344.471C279.551 343.608 281.486 342.621 283.477 341.512L283.412 341.468C282.932 341.15 282.493 340.756 282.104 340.284C280.324 338.147 280.151 334.874 281.309 331.313C282.617 327.289 285.581 323.006 289.885 319.427C294.191 315.848 298.943 313.716 303.14 313.165C306.848 312.677 310.032 313.446 311.81 315.586C312.233 316.097 312.556 316.644 312.792 317.218C313.052 317.861 313.219 318.559 313.294 319.303C313.301 319.368 313.309 319.433 313.319 319.498C314.985 318.027 316.679 316.498 318.402 314.911C317.924 313.735 317.292 312.656 316.49 311.696C313.292 307.845 308.117 306.388 302.342 307.147C297.051 307.842 291.185 310.432 285.994 314.748C280.804 319.063 277.188 324.357 275.538 329.431C273.736 334.973 274.222 340.326 277.424 344.176C277.507 344.275 277.59 344.373 277.676 344.471Z"/>
<path fill-rule="evenodd" clip-rule="evenodd" d="M289.299 338.027C295.072 334.339 301.303 329.696 308.034 324.048C308.52 322.019 308.292 320.198 307.224 318.913C304.562 315.712 297.702 317.027 291.897 321.851C286.097 326.674 283.55 333.181 286.213 336.381C286.956 337.273 288.022 337.816 289.299 338.027Z"/>
<path fill-rule="evenodd" clip-rule="evenodd" d="M265.761 348.52C262.775 343.088 262.407 336.374 264.339 329.511C266.553 321.652 271.819 313.546 279.614 307.066C287.407 300.586 296.333 296.889 304.468 296.148C312.993 295.371 320.697 297.819 325.558 303.668C325.992 304.189 326.413 304.763 326.826 305.385C327.027 305.69 327.226 306.008 327.418 306.339C325.906 307.817 324.419 309.255 322.953 310.653C322.786 310.466 322.641 310.256 322.523 310.024C322.31 309.611 322.06 309.188 321.771 308.75C321.521 308.374 321.226 307.973 320.88 307.56C317.371 303.336 311.563 301.595 305.009 302.191C298.064 302.824 290.347 306.061 283.506 311.749C276.663 317.436 272.071 324.433 270.182 331.147C268.52 337.041 268.969 342.671 271.864 346.825C269.752 347.558 267.718 348.123 265.761 348.52Z"/>
<path fill-rule="evenodd" clip-rule="evenodd" d="M233.171 164.686C233.171 164.686 232.418 164.513 231.1 164.212C230.772 164.131 230.41 164.041 230.014 163.941C229.647 163.86 229.352 163.84 228.986 163.779C228.252 163.681 227.534 163.51 226.521 163.431C225.557 163.323 224.511 163.176 223.398 163.16C222.845 163.138 222.276 163.079 221.692 163.075C221.11 163.087 220.516 163.097 219.912 163.109C218.704 163.105 217.461 163.241 216.206 163.361C214.959 163.551 213.679 163.685 212.444 163.996C211.812 164.108 211.193 164.261 210.593 164.458C209.995 164.651 209.362 164.765 208.783 164.981C208.197 165.191 207.615 165.398 207.041 165.604C206.468 165.809 205.945 166.088 205.394 166.303C204.271 166.716 203.353 167.357 202.363 167.813C201.49 168.403 200.552 168.871 199.836 169.455C199.08 169.998 198.378 170.505 197.818 171.013C197.239 171.508 196.692 171.921 196.342 172.336C195.583 173.125 195.091 173.563 195.091 173.563L194.442 174.141C192.322 176.021 189.08 175.827 187.2 173.707C185.77 172.096 185.544 169.831 186.447 168.013C186.447 168.013 186.854 167.195 187.672 165.789C188.054 165.064 188.64 164.287 189.301 163.366C189.93 162.409 190.79 161.477 191.738 160.456C192.643 159.374 193.84 158.485 195.023 157.402C196.287 156.468 197.621 155.417 199.116 154.584C200.575 153.649 202.184 152.914 203.819 152.165C204.639 151.793 205.491 151.504 206.342 151.189C207.192 150.865 208.057 150.593 208.933 150.371C210.673 149.85 212.44 149.48 214.194 149.189C215.947 148.951 217.686 148.719 219.369 148.664C220.211 148.646 221.039 148.629 221.85 148.611C222.658 148.613 223.449 148.676 224.218 148.709C225.76 148.751 227.2 148.985 228.531 149.164C229.826 149.301 231.169 149.681 232.284 149.919C232.835 150.051 233.413 150.176 233.834 150.298C234.224 150.418 234.578 150.53 234.902 150.629C236.183 151.056 236.918 151.301 236.918 151.301C240.563 152.513 242.536 156.452 241.324 160.098C240.185 163.52 236.615 165.459 233.171 164.686Z"/>
<path fill-rule="evenodd" clip-rule="evenodd" d="M70.7085 165.07C70.7085 165.07 71.4611 164.897 72.7793 164.596C73.1068 164.514 73.4689 164.425 73.8655 164.325C74.2317 164.246 74.5246 164.223 74.8928 164.162C75.6272 164.065 76.3452 163.894 77.3583 163.812C78.3245 163.705 79.368 163.56 80.4807 163.544C81.034 163.521 81.6056 163.462 82.1874 163.458C82.7692 163.471 83.3632 163.481 83.9673 163.493C85.1756 163.489 86.4185 163.623 87.6736 163.743C88.9206 163.934 90.2001 164.069 91.4369 164.38C92.0675 164.492 92.6859 164.644 93.286 164.842C93.884 165.035 94.5167 165.149 95.0964 165.365C95.6822 165.574 96.264 165.782 96.8377 165.987C97.4113 166.193 97.9341 166.472 98.4854 166.687C99.6082 167.1 100.526 167.741 101.516 168.197C102.391 168.787 103.327 169.255 104.043 169.839C104.799 170.382 105.503 170.889 106.061 171.397C106.64 171.892 107.188 172.305 107.538 172.72C108.296 173.509 108.786 173.947 108.786 173.947L109.439 174.524C111.559 176.404 114.8 176.209 116.681 174.089C118.109 172.48 118.337 170.215 117.432 168.396C117.432 168.396 117.025 167.578 116.207 166.172C115.825 165.448 115.239 164.671 114.578 163.749C113.949 162.791 113.089 161.861 112.143 160.84C111.236 159.757 110.04 158.868 108.856 157.786C107.592 156.852 106.258 155.8 104.763 154.968C103.304 154.032 101.695 153.298 100.06 152.549C99.24 152.177 98.3897 151.888 97.5374 151.572C96.6892 151.247 95.8226 150.976 94.9459 150.752C93.2066 150.234 91.4389 149.863 89.6854 149.57C87.932 149.332 86.1927 149.102 84.5125 149.048C83.6683 149.029 82.8404 149.013 82.0288 148.995C81.2212 148.997 80.4299 149.058 79.661 149.09C78.119 149.135 76.6788 149.369 75.3485 149.548C74.0527 149.684 72.7122 150.063 71.5954 150.303C71.0441 150.435 70.4664 150.559 70.0453 150.679C69.6568 150.801 69.3008 150.913 68.9794 151.013C67.6958 151.44 66.9615 151.684 66.9615 151.684C63.3162 152.897 61.3431 156.836 62.5575 160.482C63.6946 163.904 67.2626 165.843 70.7085 165.07Z"/>
</svg>
